<svg width="100" height="39" viewBox="0 0 100 39" fill="none" xmlns="http://www.w3.org/2000/svg">
<path d="M0.08 0.443998H6.944V24.116H20.98V29H0.08V0.443998ZM35.5474 29.44C34.2274 29.44 33.1421 29.396 32.2914 29.308C31.4408 29.22 30.5314 29.044 29.5634 28.78C28.5074 28.4867 27.6568 28.076 27.0114 27.548C26.3661 26.9907 25.8234 26.2133 25.3834 25.216C24.9434 24.248 24.7234 23.0747 24.7234 21.696V15.404C24.7234 13.996 24.9434 12.764 25.3834 11.708C25.8234 10.652 26.3954 9.83067 27.0994 9.244C27.7154 8.74533 28.5221 8.33467 29.5194 8.012C30.5461 7.66 31.5434 7.44 32.5114 7.352C33.6261 7.29333 34.6381 7.264 35.5474 7.264C36.8968 7.264 37.9674 7.308 38.7594 7.396C39.5808 7.45467 40.4754 7.63067 41.4434 7.924C42.4994 8.24667 43.3501 8.68667 43.9954 9.244C44.6701 9.80133 45.2421 10.5933 45.7114 11.62C46.1514 12.676 46.3714 13.9373 46.3714 15.404V21.696C46.3714 23.016 46.1514 24.1747 45.7114 25.172C45.3008 26.1693 44.7581 26.9467 44.0834 27.504C43.4968 28.0027 42.6901 28.4133 41.6634 28.736C40.6661 29.0293 39.6834 29.22 38.7154 29.308C37.8354 29.396 36.7794 29.44 35.5474 29.44ZM35.5474 25.436C36.7501 25.436 37.6594 25.348 38.2754 25.172C38.8914 24.9667 39.3168 24.6587 39.5514 24.248C39.8154 23.8373 39.9474 23.236 39.9474 22.444V14.392C39.9474 13.2187 39.6394 12.3973 39.0234 11.928C38.4074 11.4587 37.2488 11.224 35.5474 11.224C33.8461 11.224 32.6874 11.4587 32.0714 11.928C31.4554 12.3973 31.1474 13.2187 31.1474 14.392V22.444C31.1474 23.236 31.2648 23.8373 31.4994 24.248C31.7634 24.6587 32.2034 24.9667 32.8194 25.172C33.4354 25.348 34.3448 25.436 35.5474 25.436ZM60.0025 38.68C56.5412 38.68 53.9745 38.5773 52.3025 38.372V34.06C55.0598 34.4413 57.6265 34.632 60.0025 34.632C62.1732 34.632 63.7278 34.28 64.6665 33.576C65.6052 32.872 66.0745 31.6987 66.0745 30.056V26.624C65.5465 27.3867 65.0332 27.9733 64.5345 28.384C64.0358 28.7653 63.3758 29.0293 62.5545 29.176C61.7625 29.352 60.6625 29.44 59.2545 29.44C57.1718 29.44 55.5145 29.2493 54.2825 28.868C53.0505 28.4573 52.1558 27.7973 51.5985 26.888C51.0412 25.9493 50.7625 24.6587 50.7625 23.016V14.7C50.7625 12.7347 51.0118 11.224 51.5105 10.168C52.0385 9.112 52.9185 8.364 54.1505 7.924C55.4118 7.484 57.2158 7.264 59.5625 7.264C61.0878 7.264 62.2612 7.352 63.0825 7.528C63.8745 7.704 64.4758 7.968 64.8865 8.32C65.2972 8.672 65.7665 9.27333 66.2945 10.124V7.704H72.4985V30.144C72.4985 33.1653 71.4572 35.336 69.3745 36.656C67.3212 38.0053 64.1972 38.68 60.0025 38.68ZM61.5425 25.436C62.8038 25.436 63.7425 25.348 64.3585 25.172C65.0038 24.996 65.4438 24.7173 65.6785 24.336C65.9425 23.9253 66.0745 23.3533 66.0745 22.62V14.04C66.0745 13.248 65.9572 12.6613 65.7225 12.28C65.4878 11.8693 65.0332 11.5907 64.3585 11.444C63.6838 11.2973 62.6278 11.224 61.1905 11.224C60.0172 11.224 59.1518 11.312 58.5945 11.488C58.0372 11.664 57.6558 11.972 57.4505 12.412C57.2745 12.8227 57.1865 13.4387 57.1865 14.26V22.4C57.1865 23.3093 57.2745 23.9693 57.4505 24.38C57.6558 24.7613 58.0518 25.04 58.6385 25.216C59.2252 25.3627 60.1932 25.436 61.5425 25.436ZM88.356 29.44C87.036 29.44 85.9507 29.396 85.1 29.308C84.2494 29.22 83.34 29.044 82.372 28.78C81.316 28.4867 80.4654 28.076 79.82 27.548C79.1747 26.9907 78.632 26.2133 78.192 25.216C77.752 24.248 77.532 23.0747 77.532 21.696V15.404C77.532 13.996 77.752 12.764 78.192 11.708C78.632 10.652 79.204 9.83067 79.908 9.244C80.524 8.74533 81.3307 8.33467 82.328 8.012C83.3547 7.66 84.352 7.44 85.32 7.352C86.4347 7.29333 87.4467 7.264 88.356 7.264C89.7054 7.264 90.776 7.308 91.568 7.396C92.3894 7.45467 93.284 7.63067 94.252 7.924C95.308 8.24667 96.1587 8.68667 96.804 9.244C97.4787 9.80133 98.0507 10.5933 98.52 11.62C98.96 12.676 99.18 13.9373 99.18 15.404V21.696C99.18 23.016 98.96 24.1747 98.52 25.172C98.1094 26.1693 97.5667 26.9467 96.892 27.504C96.3054 28.0027 95.4987 28.4133 94.472 28.736C93.4747 29.0293 92.492 29.22 91.524 29.308C90.644 29.396 89.588 29.44 88.356 29.44ZM88.356 25.436C89.5587 25.436 90.468 25.348 91.084 25.172C91.7 24.9667 92.1254 24.6587 92.36 24.248C92.624 23.8373 92.756 23.236 92.756 22.444V14.392C92.756 13.2187 92.448 12.3973 91.832 11.928C91.216 11.4587 90.0574 11.224 88.356 11.224C86.6547 11.224 85.496 11.4587 84.88 11.928C84.264 12.3973 83.956 13.2187 83.956 14.392V22.444C83.956 23.236 84.0734 23.8373 84.308 24.248C84.572 24.6587 85.012 24.9667 85.628 25.172C86.244 25.348 87.1534 25.436 88.356 25.436Z" fill="#023131"/>
</svg>
